<?xml version="1.0" standalone="no"?>
<!DOCTYPE svg PUBLIC "-//W3C//DTD SVG 20010904//EN"
 "http://www.w3.org/TR/2001/REC-SVG-20010904/DTD/svg10.dtd">
<svg version="1.0" xmlns="http://www.w3.org/2000/svg"
 width="500.000000pt" height="500.000000pt" viewBox="0 0 500.000000 500.000000"
 preserveAspectRatio="xMidYMid meet">
<metadata>
Created by potrace 1.14, written by Peter Selinger 2001-2017
</metadata>
<g transform="translate(0.000000,500.000000) scale(0.100000,-0.100000)"
fill="#000000" stroke="none">
<path d="M2390 4273 c-135 -10 -332 -41 -380 -60 -8 -3 -22 -7 -31 -9 -9 -2
-29 -9 -45 -15 -16 -7 -36 -13 -44 -15 -27 -5 -194 -94 -220 -117 -46 -41
-119 -133 -134 -168 -11 -26 -13 -65 -9 -161 l5 -127 -31 -15 c-42 -22 -58
-58 -65 -146 -13 -157 -17 -207 -20 -272 l-4 -68 46 -52 c68 -76 80 -85 152
-103 95 -24 103 -29 125 -71 22 -44 69 -116 88 -136 7 -7 26 -31 42 -52 l30
-39 -25 -16 c-13 -9 -46 -35 -73 -58 l-49 -41 -28 27 c-91 87 -270 79 -365
-16 -47 -47 -85 -130 -85 -187 0 -121 93 -241 206 -266 78 -17 78 -17 52 -44
-43 -47 -51 -58 -68 -105 -25 -66 -24 -138 4 -215 26 -70 21 -82 -25 -59 -40
20 -107 18 -162 -5 -23 -10 -40 -9 -80 1 -57 15 -142 13 -162 -3 -6 -5 -15 -7
-18 -4 -8 9 -94 -55 -114 -85 -52 -77 -74 -155 -75 -263 -1 -88 21 -185 47
-212 8 -8 15 -18 15 -21 0 -19 70 -77 119 -99 65 -29 122 -37 170 -24 26 7 48
5 90 -8 47 -15 63 -15 113 -5 44 9 68 9 100 0 50 -13 118 -6 151 16 21 13 28
13 71 -1 59 -20 150 -14 197 12 46 26 106 81 130 120 25 41 51 36 74 -16 38
-84 142 -146 231 -137 29 3 65 12 80 20 26 13 33 13 59 0 45 -24 153 -29 211
-9 59 19 116 64 150 117 33 53 56 51 89 -8 28 -51 89 -103 141 -121 17 -5 55
-9 84 -8 29 2 69 -3 89 -10 45 -16 128 -12 165 8 24 12 36 13 70 3 47 -13 85
-12 138 6 31 10 40 9 54 -2 11 -9 43 -14 94 -14 65 0 82 4 116 25 21 14 65 35
98 45 131 44 201 157 165 266 -7 19 -20 43 -30 54 -13 15 -18 36 -18 82 1 91
-41 161 -117 195 -11 5 -26 24 -32 42 -17 45 -78 104 -122 117 -20 6 -60 10
-88 8 l-52 -4 7 40 c11 67 6 118 -20 175 -44 100 -141 169 -236 166 -47 -1
-47 -4 -22 89 6 22 11 69 11 105 0 93 32 138 102 145 58 6 127 51 160 106 93
149 6 327 -170 353 -49 7 -49 13 -1 21 34 6 55 20 105 69 34 33 65 72 69 86
10 31 6 151 -10 355 -6 76 -23 109 -71 136 -32 18 -34 33 -19 165 6 48 4 67
-10 95 -91 177 -302 307 -615 378 -47 10 -109 22 -139 25 -30 4 -64 9 -75 12
-23 5 -302 11 -356 7z"/>
</g>
</svg>
